<?xml version="1.0" encoding="utf-8"?>
<!-- Generator: Adobe Illustrator 23.0.2, SVG Export Plug-In . SVG Version: 6.00 Build 0)  -->
<svg version="1.1" id="Capa_1" xmlns="http://www.w3.org/2000/svg" xmlns:xlink="http://www.w3.org/1999/xlink" x="0px" y="0px"
	 viewBox="0 0 100 100" style="enable-background:new 0 0 100 100;" xml:space="preserve">
<style type="text/css">
	.st0{fill:#FFD878;}
	.st1{fill:#1D5976;}
	.st2{fill:#E80000;}
	.st3{fill:#FFFFFF;}
	.st4{fill:#00C3FF;}
	.st5{fill:#5AD2FA;}
	.st6{fill:#00C219;}
	.st7{fill:#FF7E00;}
	.st8{fill:#7809FF;}
	.st9{fill:#FF003A;}
	.st10{fill:#005A78;}
	.st11{fill:#F6F6F6;}
	.st12{fill:#0089C9;}
	.st13{fill:#FFC333;stroke:#000000;stroke-width:2;stroke-miterlimit:10;}
	.st14{fill:#2D8095;stroke:#000000;stroke-width:2;stroke-miterlimit:10;}
	.st15{fill:#8FA9B7;stroke:#000000;stroke-width:2;stroke-miterlimit:10;}
	.st16{fill:#FF7E00;stroke:#000000;stroke-width:2;stroke-miterlimit:10;}
</style>
<g>
	<g>
		<circle class="st0" cx="50.3" cy="49.9" r="49.7"/>
	</g>
	<g>
		<g>
			<g id="Boxes_9_">
				<path class="st1" d="M75.1,49.7l-3.5-5.2c-0.2-0.2-0.4-0.4-0.7-0.4h-7.8V29.4c0-0.2-0.1-0.3-0.1-0.5l-3.5-5.2
					c-0.2-0.2-0.4-0.4-0.7-0.4H41.4c-0.3,0-0.6,0.1-0.7,0.4l-3.5,5.2c0,0,0,0.1-0.1,0.1c-0.1,0.1-0.1,0.2-0.1,0.4v14.7h-7.8
					c-0.3,0-0.6,0.1-0.7,0.4l-3.5,5.2C25,49.8,25,50,25,50.1v20.8c0,0.5,0.4,0.9,0.9,0.9h48.5c0.5,0,0.9-0.4,0.9-0.9V50.1
					C75.2,50,75.1,49.8,75.1,49.7z M72.8,49.3h-7.2L65,45.8h5.4L72.8,49.3z M60.5,51h3.5v6.2l-1.3-0.8c-0.3-0.2-0.7-0.2-1,0
					l-1.3,0.8V51z M63.2,45.8l0.6,3.5h-0.7v-3.5H63.2z M58.3,25l2.3,3.5h-7.2L52.9,25H58.3z M49.1,25h2l0.6,3.5h-3.2L49.1,25z
					 M48.4,30.2h3.5v6.2l-1.3-0.8c-0.3-0.2-0.7-0.2-1,0l-1.3,0.8V30.2z M41.9,25h5.4l-0.6,3.5h-7.2L41.9,25z M38.8,30.2h7.8V38
					c0,0.6,0.5,1,1.1,0.8c0.1,0,0.2-0.1,0.2-0.1l2.1-1.4l2.1,1.4c0.4,0.3,0.9,0.2,1.2-0.2c0.1-0.1,0.1-0.3,0.1-0.5v-7.8h7.8v19.1
					H38.8V30.2z M36.2,51h3.5v6.2l-1.3-0.8c-0.3-0.2-0.7-0.2-1,0l-1.3,0.8V51z M37.1,45.8v3.5h-0.7l0.6-3.5H37.1z M29.8,45.8h5.4
					l-0.6,3.5h-7.2L29.8,45.8z M26.7,51h7.8v7.8c0,0.6,0.5,1,1.1,0.8c0.1,0,0.2-0.1,0.2-0.1l2.1-1.4l2.1,1.4
					c0.4,0.3,0.9,0.2,1.2-0.2c0.1-0.1,0.1-0.3,0.1-0.5V51h7.8v19.1H26.7V51z M73.5,70.1H51V51h7.8v7.8c0,0.6,0.5,1,1.1,0.8
					c0.1,0,0.2-0.1,0.2-0.1l2.1-1.4l2.1,1.4c0.4,0.3,0.9,0.2,1.2-0.2c0.1-0.1,0.1-0.3,0.1-0.5V51h7.8V70.1z"/>
			</g>
		</g>
	</g>
</g>
</svg>
